<?xml version="1.0" standalone="no"?><!DOCTYPE svg PUBLIC "-//W3C//DTD SVG 1.1//EN" "http://www.w3.org/Graphics/SVG/1.1/DTD/svg11.dtd"><svg t="1608539445409" class="icon" viewBox="0 0 1024 1024" version="1.1" xmlns="http://www.w3.org/2000/svg" p-id="5857" xmlns:xlink="http://www.w3.org/1999/xlink" width="64" height="64"><defs><style type="text/css"></style></defs><path d="M810.666667 298.666667 469.333333 298.666667 469.333333 597.333333 128 597.333333 128 213.333333 42.666667 213.333333 42.666667 853.333333 128 853.333333 128 725.333333 896 725.333333 896 853.333333 981.333333 853.333333 981.333333 469.333333C981.333333 375.04 904.96 298.666667 810.666667 298.666667M298.666667 554.666667C369.493333 554.666667 426.666667 497.493333 426.666667 426.666667 426.666667 355.84 369.493333 298.666667 298.666667 298.666667 227.84 298.666667 170.666667 355.84 170.666667 426.666667 170.666667 497.493333 227.84 554.666667 298.666667 554.666667Z" p-id="5858" fill="#0f294d"></path></svg>